# xmcd CD database generated by RipIT
#
# Track frame offsets:
# 150
# 22110
# 43590
# 61625
# 83242
# 103344
# 117824
# 142077
# 157855
# 177843
# 190194
# 209560
# 237585
#
# Disc length: 3431 seconds
#
# Revision: 0
# Processed by: cddbd v1.5.2PL0 Copyright (c) Steve Scherf et al.
# Submitted via: RipIT 3.8.0 www.suwald.com/ripit/ripit.html on 2010-09-30 at 18:41
#
DISCID=b40d650d
DTITLE=The Time Jumpers - Jumpin' Time
DYEAR=2007
DGENRE=Country
TTITLE0=Opening
TTITLE1=Stompin' at the Station
TTITLE2=Honeysuckle Rose
TTITLE3=Sugar Moon
TTITLE4=Write Myself a Letter
TTITLE5=Along the Navajo Trail
TTITLE6=It's all your fault
TTITLE7=Pig Dog Hop
TTITLE8=Leavin' and Sayin' Goodbye
TTITLE9=Blues for Dixie
TTITLE10=Fidoodlin'
TTITLE11=Bring it on down to my house
TTITLE12=Route 66
EXTD=
EXTT0=
EXTT1=
EXTT2=
EXTT3=
EXTT4=
EXTT5=
EXTT6=
EXTT7=
EXTT8=
EXTT9=
EXTT10=
EXTT11=
EXTT12=
PLAYORDER=
